<svg width="32" height="32" viewBox="0 0 32 32" fill="none" xmlns="http://www.w3.org/2000/svg">
<rect width="32" height="32" fill="#8DCC98"/>
<path d="M25.4534 20.0898C27.3057 20.7307 28.5671 21.5471 29.0781 22.436C29.5892 23.3248 29.3269 24.2461 28.3245 25.0834C27.322 25.9207 25.6244 26.6363 23.4464 27.1398C21.2684 27.6433 18.7077 27.9121 16.0882 27.9121C13.4687 27.9121 10.908 27.6433 8.72998 27.1398C6.55195 26.6363 4.85437 25.9207 3.85193 25.0834C2.84949 24.2462 2.5872 23.3248 3.09824 22.436C3.60928 21.5471 4.87069 20.7307 6.72296 20.0898" stroke="#484848" stroke-width="2.4"/>
<path d="M23.1449 13.8839C22.7894 13.8839 22.5049 13.5817 22.5049 13.2439V10.6484H16.6383V13.0128C16.6383 13.3684 16.3538 13.6528 15.9983 13.6528C15.6427 13.6528 15.3583 13.3684 15.3583 13.0128V10.6484H9.4916V13.2439C9.4916 13.5817 9.20715 13.8839 8.8516 13.8839C8.51382 13.8839 8.2116 13.5817 8.2116 13.2439V10.5773C8.2116 9.9017 8.76271 9.36837 9.42049 9.36837H15.3583V8.97726H10.7716C10.4338 8.97726 10.1316 8.69281 10.1316 8.33726C10.1316 7.9817 10.4338 7.69726 10.7716 7.69726H21.2249C21.5627 7.69726 21.8649 7.9817 21.8649 8.33726C21.8649 8.69281 21.5627 8.97726 21.2249 8.97726H16.6383V9.36837H22.576C23.2338 9.36837 23.7849 9.9017 23.7849 10.5773V13.2439C23.7849 13.5817 23.4827 13.8839 23.1449 13.8839ZM11.216 10.9861H13.5627C13.9183 10.9861 14.2027 11.2884 14.2027 11.6261C14.2027 11.9817 13.9183 12.2661 13.5627 12.2661H11.216C10.8605 12.2661 10.576 11.9817 10.576 11.6261C10.576 11.2884 10.8605 10.9861 11.216 10.9861ZM18.4338 10.9861H20.7805C21.136 10.9861 21.4205 11.2884 21.4205 11.6261C21.4205 11.9817 21.136 12.2661 20.7805 12.2661H18.4338C18.0783 12.2661 17.7938 11.9817 17.7938 11.6261C17.7938 11.2884 18.0783 10.9861 18.4338 10.9861ZM11.216 12.6039H13.5627C13.9183 12.6039 14.2027 12.8884 14.2027 13.2439C14.2027 13.5817 13.9183 13.8839 13.5627 13.8839H11.216C10.8605 13.8839 10.576 13.5817 10.576 13.2439C10.576 12.8884 10.8605 12.6039 11.216 12.6039ZM18.4338 12.6039H20.7805C21.136 12.6039 21.4205 12.8884 21.4205 13.2439C21.4205 13.5817 21.136 13.8839 20.7805 13.8839H18.4338C18.0783 13.8839 17.7938 13.5817 17.7938 13.2439C17.7938 12.8884 18.0783 12.6039 18.4338 12.6039ZM23.7494 18.0439C24.1049 18.0795 24.3538 18.3995 24.3183 18.755C24.2827 19.075 23.9983 19.3239 23.6783 19.3239H23.6072C22.5049 19.1995 21.5272 18.9506 20.6205 18.595L20.2472 18.435C20.0694 18.5239 19.9094 18.595 19.7316 18.6839C20.0338 18.755 20.2472 19.0395 20.2116 19.3595C20.1938 19.4661 20.1938 19.555 20.176 19.6439H22.2383C22.5227 19.6439 22.8072 19.7684 23.0027 19.9639C23.1983 20.1773 23.3227 20.4617 23.3049 20.7461C23.2694 21.8128 23.0916 22.5417 22.7183 23.1284C22.5049 23.4484 22.1849 23.6973 21.8116 23.7861C21.6872 23.8039 21.5627 23.8217 21.456 23.8217C21.1894 23.8217 20.9227 23.7506 20.6916 23.6084C20.3716 23.4128 20.0694 23.1995 19.7672 22.915C19.5183 22.6661 19.5005 22.2573 19.7494 22.0084C19.9805 21.7417 20.3894 21.7417 20.656 21.9728C20.8872 22.2039 21.1183 22.3639 21.3494 22.5061C21.4383 22.5773 21.5805 22.5417 21.6338 22.435C21.8472 22.0973 21.9716 21.6173 22.0072 20.9239H19.856C19.6783 21.3684 19.4649 21.7773 19.1805 22.1328C18.5938 22.8617 17.776 23.3773 16.6916 23.715C16.6383 23.7328 16.5672 23.7506 16.496 23.7506C16.2294 23.7506 15.9805 23.5728 15.8916 23.2884C15.7849 22.9506 15.9805 22.595 16.3183 22.4884C17.3316 22.1684 18.0249 21.6706 18.4516 20.9239H17.136C16.7983 20.9239 16.496 20.6395 16.496 20.2839C16.496 19.9284 16.7983 19.6439 17.136 19.6439H18.8783C18.896 19.5195 18.9138 19.3773 18.9316 19.235C18.9494 19.1106 18.9849 19.0217 19.0383 18.9328C18.256 19.1817 17.3316 19.3773 16.3005 19.4661C16.2827 19.4839 16.2649 19.4839 16.2472 19.4839C15.9272 19.4839 15.6605 19.2528 15.6072 18.9506C15.2338 19.8217 14.7183 20.5506 14.0427 21.1906C13.9183 21.315 13.7583 21.3684 13.5983 21.3684C13.4205 21.3684 13.2605 21.2973 13.136 21.1728L13.0827 21.1195V22.3817C13.0827 22.7906 12.9049 23.1817 12.5672 23.4306C12.336 23.6261 12.0338 23.7328 11.7494 23.7328C11.6427 23.7328 11.536 23.715 11.4294 23.6973C10.8427 23.555 10.2916 23.3239 9.74049 23.0217C9.43826 22.8439 9.3316 22.4528 9.50938 22.1328C9.68715 21.8306 10.0783 21.7239 10.3983 21.9017C10.8249 22.1684 11.2516 22.3284 11.7316 22.4528C11.7316 22.4528 11.7494 22.4528 11.7849 22.435C11.8027 22.4173 11.8027 22.3995 11.8027 22.3817V20.1595C10.8783 20.8173 9.90049 21.3506 8.65604 21.8484C8.58493 21.8839 8.49604 21.9017 8.42493 21.9017C8.15826 21.9017 7.92715 21.7417 7.82049 21.5106C7.69604 21.1728 7.83826 20.7995 8.17604 20.675C9.56271 20.0884 10.576 19.5195 11.5894 18.7195H8.94049C8.58493 18.7195 8.30049 18.435 8.30049 18.0795C8.30049 17.7239 8.58493 17.4395 8.94049 17.4395H11.5894C11.3938 17.2261 11.1449 17.0484 10.9138 16.8706C10.6116 16.675 10.5405 16.2661 10.7538 15.9817C10.9494 15.6973 11.3405 15.6261 11.6427 15.8217C11.7849 15.9284 11.9272 16.035 12.0694 16.1595C12.5494 15.9995 12.9938 15.8039 13.3672 15.5728H9.66938C9.31382 15.5728 9.02938 15.2884 9.02938 14.9328C9.02938 14.5773 9.31382 14.2928 9.66938 14.2928H14.3983C14.7716 14.2928 15.1094 14.5061 15.2516 14.8617C15.3938 15.1995 15.3227 15.5906 15.0738 15.8573C14.5938 16.355 13.8827 16.8173 13.0472 17.155C13.1183 17.2439 13.1894 17.3506 13.2605 17.4395H14.6472C15.0027 17.4395 15.3405 17.6173 15.536 17.9195C15.6427 18.0973 15.696 18.2928 15.7138 18.4884C15.8027 18.3284 15.9805 18.2217 16.176 18.2039C17.2072 18.0973 18.0783 17.9195 18.8249 17.6528C18.5938 17.4928 18.3627 17.3328 18.1316 17.155C17.8472 16.9239 17.7938 16.5328 18.0249 16.2484C18.0605 16.1773 18.1316 16.1417 18.1849 16.0884H17.8472C17.5627 16.3906 17.2427 16.675 16.8694 16.9239C16.7627 16.995 16.6383 17.0306 16.5138 17.0306C16.3183 17.0306 16.1049 16.9239 15.9805 16.7461C15.7849 16.4617 15.8738 16.0528 16.1583 15.8573C16.816 15.4128 17.2783 14.8973 17.5983 14.2217C17.7405 13.9195 18.1316 13.7773 18.4516 13.9195C18.7716 14.0795 18.896 14.4528 18.7538 14.7728C18.736 14.7906 18.736 14.8084 18.736 14.8084H23.3938C23.7494 14.8084 24.0338 15.0928 24.0338 15.4484C24.0338 15.8039 23.7494 16.0884 23.3938 16.0884H22.5405C22.2916 16.6395 21.936 17.1373 21.4916 17.5639C22.1849 17.795 22.9316 17.955 23.7494 18.0439ZM21.0827 16.0884H18.8427C18.8783 16.1061 18.896 16.1239 18.9138 16.1417C19.3227 16.4617 19.7494 16.7461 20.176 16.9773C20.5494 16.7284 20.8516 16.4261 21.0827 16.0884ZM13.1538 20.2661C13.6516 19.8039 14.0072 19.3061 14.3094 18.7195H13.0827V20.3373L13.1538 20.2661Z" fill="#484848"/>
<path d="M10.5959 5.77734H10.4965V2.19762H10.5959V5.77734ZM10.3971 5.77734H10.0987V2.19762H10.3971V5.77734ZM9.99931 5.77734H9.60156V2.19762H9.99931V5.77734ZM10.7948 5.77734H10.6954V2.19762H10.7948V5.77734ZM11.3914 5.77734H10.9937V2.19762H11.3914V5.77734ZM11.6897 5.77734H11.5903V2.19762H11.6897V5.77734ZM11.8886 5.77734H11.7892V2.19762H11.8886V5.77734ZM12.3858 5.77734H11.988V2.19762H12.3858V5.77734ZM12.6841 5.77734H12.5847V2.19762H12.6841V5.77734ZM13.3802 5.77734H13.1813V2.19762H13.3802V5.77734ZM12.9824 5.77734H12.883V2.19762H12.9824V5.77734ZM13.8773 5.77734H13.7779V2.19762H13.8773V5.77734ZM14.0762 5.77734H13.9768V2.19762H14.0762V5.77734ZM14.7723 5.77734H14.3745V2.19762H14.7723V5.77734ZM14.9711 5.77734H14.8717V2.19762H14.9711V5.77734ZM15.17 5.77734H15.0706V2.19762H15.17V5.77734ZM15.7666 5.77734H15.3689V2.19762H15.7666V5.77734ZM16.0649 5.77734H15.9655V2.19762H16.0649V5.77734ZM16.6616 5.77734H16.4627V2.19762H16.6616V5.77734ZM16.3633 5.77734H16.1644V2.19762H16.3633V5.77734ZM17.0593 5.77734H16.8604V2.19762H17.0593V5.77734ZM17.3576 5.77734H17.2582V2.19762H17.3576V5.77734ZM18.0537 5.77734H17.6559V2.19762H18.0537V5.77734ZM18.2526 5.77734H18.1531V2.19762H18.2526V5.77734ZM18.5509 5.77734H18.352V2.19762H18.5509V5.77734ZM19.048 5.77734H18.9486V2.19762H19.048V5.77734ZM19.2469 5.77734H19.1475V2.19762H19.2469V5.77734ZM19.5452 5.77734H19.4458V2.19762H19.5452V5.77734ZM20.0424 5.77734H19.6447V2.19762H20.0424V5.77734ZM20.3407 5.77734H20.2413V2.19762H20.3407V5.77734ZM20.9373 5.77734H20.7385V2.19762H20.9373V5.77734ZM20.639 5.77734H20.5396V2.19762H20.639V5.77734ZM21.2357 5.77734H21.1362V2.19762H21.2357V5.77734ZM21.8323 5.77734H21.6334V2.19762H21.8323V5.77734ZM22.3295 5.77734H22.23V2.19762H22.3295V5.77734ZM22.5283 5.77734H22.4289V2.19762H22.5283V5.77734Z" fill="#484848"/>
</svg>
